<svg version="1.1" viewBox="0.0 0.0 2774.267716535433 465.11548556430444" fill="none" stroke="none" stroke-linecap="square" stroke-miterlimit="10" xmlns:xlink="http://www.w3.org/1999/xlink" xmlns="http://www.w3.org/2000/svg"><clipPath id="p.0"><path d="m0 0l2774.2678 0l0 465.11548l-2774.2678 0l0 -465.11548z" clip-rule="nonzero"/></clipPath><g clip-path="url(#p.0)"><path fill="#000000" fill-opacity="0.0" d="m0 0l2774.2678 0l0 465.11548l-2774.2678 0z" fill-rule="evenodd"/><path fill="#000000" fill-opacity="0.0" d="m-88.0 -8.811024l512.7874 0l0 511.74805l-512.7874 0z" fill-rule="evenodd"/><path fill="#000000" fill-opacity="0.0" d="m26.212599 214.49962l0 0c0 -25.68103 20.818586 -46.49962 46.49962 -46.49962l185.99289 0l0 0c12.3324585 0 24.15982 4.899048 32.880188 13.619415c8.720367 8.720383 13.619415 20.54773 13.619415 32.880203l0 189.55196c0 25.68103 -20.818573 46.499603 -46.499603 46.499603l-185.99289 0c-25.681034 0 -46.49962 -20.818573 -46.49962 -46.499603z" fill-rule="evenodd"/><path stroke="#3a673a" stroke-width="24.0" stroke-linejoin="round" stroke-linecap="butt" d="m26.212599 214.49962l0 0c0 -25.68103 20.818586 -46.49962 46.49962 -46.49962l185.99289 0l0 0c12.3324585 0 24.15982 4.899048 32.880188 13.619415c8.720367 8.720383 13.619415 20.54773 13.619415 32.880203l0 189.55196c0 25.68103 -20.818573 46.499603 -46.499603 46.499603l-185.99289 0c-25.681034 0 -46.49962 -20.818573 -46.49962 -46.499603z" fill-rule="evenodd"/><path fill="#000000" fill-opacity="0.0" d="m63.070866 310.25986l0 0c0 -56.15042 45.695156 -101.66931 102.063 -101.66931l0 0c27.068787 0 53.0289 10.711563 72.16943 29.778244c19.140518 19.066696 29.89354 44.92668 29.89354 71.89107l0 0c0 56.15039 -45.695145 101.66928 -102.06297 101.66928l0 0c-56.367844 0 -102.063 -45.51889 -102.063 -101.66928z" fill-rule="evenodd"/><path stroke="#3a673a" stroke-width="24.0" stroke-linejoin="round" stroke-linecap="butt" d="m63.070866 310.25986l0 0c0 -56.15042 45.695156 -101.66931 102.063 -101.66931l0 0c27.068787 0 53.0289 10.711563 72.16943 29.778244c19.140518 19.066696 29.89354 44.92668 29.89354 71.89107l0 0c0 56.15039 -45.695145 101.66928 -102.06297 101.66928l0 0c-56.367844 0 -102.063 -45.51889 -102.063 -101.66928z" fill-rule="evenodd"/><path fill="#000000" fill-opacity="0.0" d="m63.070866 168.7336l0 0c0 -54.04924 19.495945 -103.98328 51.12965 -130.95592c31.633698 -26.972641 70.58809 -26.8766 102.16095 0.25187302c31.57286 27.128471 50.956375 77.15837 50.834824 131.2073l-102.06242 -0.5032501z" fill-rule="evenodd"/><path fill="#000000" fill-opacity="0.0" d="m63.070866 168.7336l0 0c0 -54.04924 19.495945 -103.98328 51.12965 -130.95592c31.633698 -26.972641 70.58809 -26.8766 102.16095 0.25187302c31.57286 27.128471 50.956375 77.15837 50.834824 131.2073" fill-rule="evenodd"/><path stroke="#3a673a" stroke-width="24.0" stroke-linejoin="round" stroke-linecap="butt" d="m63.070866 168.7336l0 0c0 -54.04924 19.495945 -103.98328 51.12965 -130.95592c31.633698 -26.972641 70.58809 -26.8766 102.16095 0.25187302c31.57286 27.128471 50.956375 77.15837 50.834824 131.2073" fill-rule="evenodd"/><path fill="#000000" fill-opacity="0.0" d="m371.46194 4.5800524l2628.2834 0l0 460.53543l-2628.2834 0z" fill-rule="evenodd"/><path fill="#3a673a" d="m408.79007 460.09778l54.296875 0l0 -99.609375q3.703125 4.09375 7.796875 7.421875q4.109375 3.3125 8.609375 6.046875q7.609375 4.296875 16.5 6.546875q8.890625 2.25 19.43747 2.25q19.921875 0 35.34375 -8.203125q15.4375 -8.203125 25.984375 -22.65625q10.34375 -14.265625 15.71875 -33.984375q5.375 -19.734375 5.375 -42.78125l0 -4.09375q0 -24.03125 -5.375 -43.84375q-5.375 -19.828125 -15.921875 -34.09375q-10.546875 -14.0625 -25.984375 -21.765625q-15.421875 -7.71875 -35.53125 -7.71875q-9.7655945 0 -18.265594 2.046875q-8.5 2.046875 -15.53125 5.765625q-5.859375 3.125 -10.9375 7.328125q-5.078125 4.1875 -9.375 9.46875l-1.953125 -20.703125l-50.1875 0l0 292.57812zm134.7656 -189.0625l0 4.09375q0 13.09375 -2.34375 24.71875q-2.34375 11.609375 -7.421875 20.40625q-5.078125 8.78125 -13.1875 13.859375q-8.109375 5.078125 -19.62497 5.078125q-7.234375 0 -13.09375 -1.453125q-5.859375 -1.46875 -10.34375 -4.203125q-4.6875 -2.9375 -8.3125 -7.03125q-3.609375 -4.109375 -6.140625 -9.1875l0 -88.28125q2.734375 -5.46875 6.53125 -9.5625q3.8125 -4.109375 8.890625 -6.84375q4.5 -2.34375 9.96875 -3.609375q5.46875 -1.265625 12.109375 -1.265625q11.5155945 0 19.62497 4.890625q8.109375 4.875 13.375 13.265625q5.078125 8.59375 7.515625 20.21875q2.453125 11.625 2.453125 24.90625zm256.2422 -107.421875q-21.28125 0 -39.25 10.25q-17.96875 10.25 -30.859375 28.21875l-0.390625 -4.6875l-2.15625 -29.875l-50.578125 0l0 211.32812l54.296875 0l0 -126.953125q3.703125 -8.984375 9.359375 -15.625q5.671875 -6.640625 13.6875 -10.9375q6.640625 -3.71875 15.125 -5.5625q8.5 -1.859375 19.046875 -1.859375q10.15625 0 21.390625 1.265625q11.234375 1.265625 21.96875 3.8125l8.015625 -54.109375q-6.453125 -1.953125 -16.90625 -3.609375q-10.4375 -1.65625 -22.75 -1.65625zm102.74219 3.90625l0 44.328125l60.15625 0l0 122.859375l-60.15625 0l0 44.140625l172.26562 0l0 -44.140625l-57.234375 0l0 -167.1875l-115.03125 0zm56.25 -54.109367q0 6.25 2.234375 11.625q2.25 5.3749924 6.359375 9.078117q4.09375 3.90625 9.859375 6.0625q5.765625 2.140625 12.796875 2.140625q14.453125 0 22.9375 -8.09375q8.5 -8.109367 8.5 -20.812492q0 -12.6875 -8.5 -20.796875q-8.484375 -8.109375 -22.9375 -8.109375q-7.03125 0 -12.796875 2.15625q-5.765625 2.140625 -9.859375 5.859375q-4.109375 3.90625 -6.359375 9.28125q-2.234375 5.359375 -2.234375 11.609375zm236.52344 265.4375l50.96875 0l80.28125 -211.32812l-56.640625 0l-46.296875 149.01562l-2.921875 14.84375l-2.9375 -14.84375l-46.484375 -149.01562l-56.640625 0l80.671875 211.32812zm304.8828 0l55.078125 0l0 -3.328125q-4.109375 -8.0 -6.265625 -19.125q-2.140625 -11.140625 -2.140625 -28.140625l0 -90.625q0 -18.359375 -6.84375 -32.3125q-6.828125 -13.96875 -18.9375 -23.15625q-12.109375 -9.171875 -28.609375 -13.859375q-16.5 -4.6875 -35.640625 -4.6875q-21.296875 0 -37.796875 5.375q-16.5 5.359375 -27.828125 14.546875q-11.53125 9.171875 -17.484375 21.28125q-5.953125 12.109375 -5.953125 25.59375l54.296875 0q0 -5.671875 1.65625 -10.359375q1.65625 -4.6875 5.171875 -8.0q3.90625 -3.71875 10.15625 -5.765625q6.25 -2.046875 14.84375 -2.046875q9.765625 0 17.09375 2.4375q7.328125 2.4375 12.203125 6.9375q4.6875 4.296875 7.03125 10.25q2.34375 5.953125 2.34375 13.375l0 12.5l-30.265625 0q-23.4375 0 -41.515625 4.203125q-18.0625 4.203125 -30.359375 12.203125q-13.671875 8.796875 -20.515625 22.375q-6.828125 13.5625 -6.828125 31.140625q0 13.671875 5.46875 25.296875q5.46875 11.625 15.234375 20.015625q9.765625 8.40625 23.328125 13.09375q13.578125 4.6875 29.796875 4.6875q9.953125 0 18.546875 -1.859375q8.59375 -1.84375 15.828125 -5.171875q7.03125 -3.125 12.890625 -7.421875q5.859375 -4.296875 10.34375 -9.1875q0.984375 5.671875 2.34375 10.75q1.375 5.078125 3.328125 8.984375zm-51.765625 -38.09375q-7.609375 0 -13.375 -1.84375q-5.765625 -1.859375 -9.671875 -4.984375q-3.90625 -3.328125 -5.953125 -8.109375q-2.046875 -4.78125 -2.046875 -10.453125q0 -7.21875 2.734375 -13.375q2.734375 -6.15625 8.390625 -10.640625q5.671875 -4.296875 14.65625 -6.734375q8.984375 -2.453125 21.671875 -2.453125l27.734375 0l0 36.328125q-2.34375 4.109375 -6.453125 8.109375q-4.09375 4.0 -9.75 7.125q-5.671875 3.125 -12.703125 5.078125q-7.03125 1.953125 -15.234375 1.953125zm296.10156 -19.921875q0 4.890625 -2.453125 9.0q-2.4375 4.09375 -7.3125 7.21875q-5.078125 3.125 -13.0 4.984375q-7.90625 1.84375 -18.453125 1.84375q-8.78125 0 -17.09375 -1.75q-8.296875 -1.765625 -14.734375 -5.671875q-6.453125 -3.703125 -10.5625 -9.859375q-4.09375 -6.15625 -4.671875 -14.75l-51.765625 0q0 12.890625 6.34375 25.6875q6.359375 12.796875 18.65625 22.75q12.3125 10.15625 30.5625 16.421875q18.265625 6.25 42.09375 6.25q21.6875 0 39.265625 -4.78125q17.578125 -4.796875 30.078125 -13.390625q12.296875 -8.59375 19.03125 -20.40625q6.75 -11.828125 6.75 -25.890625q0 -15.234375 -6.75 -26.265625q-6.734375 -11.03125 -18.640625 -18.84375q-11.921875 -7.625 -28.328125 -12.5q-16.40625 -4.890625 -35.546875 -8.015625q-13.28125 -1.953125 -21.875 -4.578125q-8.59375 -2.640625 -13.46875 -5.96875q-5.078125 -3.125 -7.03125 -7.125q-1.953125 -4.0 -1.953125 -8.6875q0 -4.6875 2.234375 -8.890625q2.25 -4.203125 6.546875 -7.328125q4.6875 -3.515625 12.109375 -5.46875q7.421875 -1.953125 17.390625 -1.953125q11.71875 0 20.015625 2.9375q8.296875 2.921875 13.1875 7.8125q3.515625 3.703125 5.265625 8.296875q1.765625 4.59375 1.765625 9.859375l54.296875 0q0 -14.640625 -6.453125 -27.140625q-6.4375 -12.5 -18.546875 -21.6875q-12.3125 -8.984375 -29.890625 -14.15625q-17.578125 -5.171875 -39.640625 -5.171875q-21.09375 0 -37.890625 5.28125q-16.796875 5.265625 -28.515625 14.25q-11.71875 8.984375 -17.96875 20.90625q-6.25 11.90625 -6.25 24.984375q0 13.484375 6.140625 23.84375q6.15625 10.34375 17.09375 18.15625q10.9375 8.0 26.265625 13.578125q15.34375 5.5625 33.890625 9.265625q14.65625 2.734375 24.21875 5.46875q9.578125 2.734375 15.4375 5.859375q5.65625 3.328125 7.90625 7.046875q2.25 3.703125 2.25 8.578125zm203.32031 -205.07812l-54.296875 0l0 51.765617l-48.25 0l0 40.03125l48.25 0l0 96.09375q0 20.90625 5.46875 35.84375q5.46875 14.9375 15.625 24.515625q9.953125 9.765625 24.109375 14.359375q14.171875 4.59375 31.546875 4.59375q8.984375 0 18.265625 -0.890625q9.28125 -0.875 17.875 -2.4375q8.59375 -1.5625 16.203125 -4.0q7.625 -2.453125 13.28125 -5.765625l-5.265625 -37.3125q-3.71875 0.984375 -8.890625 1.96875q-5.171875 0.96875 -11.03125 1.75q-6.0625 0.96875 -12.609375 1.5625q-6.53125 0.578125 -12.78125 0.578125q-8.59375 0 -15.53125 -1.953125q-6.9375 -1.953125 -11.8125 -6.640625q-4.890625 -4.484375 -7.53125 -12.203125q-2.625 -7.71875 -2.625 -19.234375l0 -90.828125l78.90625 0l0 -40.03125l-78.90625 0l0 -51.765617zm242.96094 267.0q30.671875 0 53.125 -11.90625q22.46875 -11.921875 32.8125 -26.578125l-27.140625 -29.296875q-9.375 12.109375 -24.421875 18.171875q-15.03125 6.046875 -31.046875 6.046875q-11.328125 0 -20.90625 -3.515625q-9.5625 -3.515625 -16.984375 -9.953125q-7.234375 -6.25 -11.53125 -13.96875q-4.296875 -7.71875 -7.03125 -20.40625l0 -0.59375l143.35938 0l0 -23.046875q0 -23.234375 -6.453125 -42.46875q-6.4375 -19.25 -18.734375 -32.921875q-12.5 -13.671875 -30.375 -21.1875q-17.875 -7.515625 -40.71875 -7.515625q-22.078125 0 -40.828125 8.015625q-18.75 8.0 -32.421875 22.453125q-13.671875 14.453125 -21.296875 34.46875q-7.609375 20.015625 -7.609375 44.234375l0 7.8125q0 21.296875 7.71875 39.953125q7.71875 18.640625 21.96875 32.3125q14.265625 13.875 34.1875 21.890625q19.921875 8.0 44.328125 8.0zm-6.4375 -175.20312q10.34375 0 18.25 3.234375q7.921875 3.21875 13.390625 8.6875q5.46875 5.65625 8.59375 13.28125q3.125 7.609375 3.125 16.203125l0 4.296875l-89.0625 0q1.953125 -10.34375 5.859375 -18.734375q3.90625 -8.40625 9.765625 -14.46875q5.65625 -6.046875 13.265625 -9.265625q7.625 -3.234375 16.8125 -3.234375zm275.97656 171.29688l55.078125 0l0 -3.328125q-4.109375 -8.0 -6.265625 -19.125q-2.140625 -11.140625 -2.140625 -28.140625l0 -90.625q0 -18.359375 -6.84375 -32.3125q-6.828125 -13.96875 -18.9375 -23.15625q-12.109375 -9.171875 -28.609375 -13.859375q-16.5 -4.6875 -35.640625 -4.6875q-21.296875 0 -37.796875 5.375q-16.5 5.359375 -27.828125 14.546875q-11.53125 9.171875 -17.484375 21.28125q-5.953125 12.109375 -5.953125 25.59375l54.296875 0q0 -5.671875 1.65625 -10.359375q1.65625 -4.6875 5.171875 -8.0q3.90625 -3.71875 10.15625 -5.765625q6.25 -2.046875 14.84375 -2.046875q9.765625 0 17.09375 2.4375q7.328125 2.4375 12.203125 6.9375q4.6875 4.296875 7.03125 10.25q2.34375 5.953125 2.34375 13.375l0 12.5l-30.265625 0q-23.4375 0 -41.515625 4.203125q-18.0625 4.203125 -30.359375 12.203125q-13.671875 8.796875 -20.515625 22.375q-6.828125 13.5625 -6.828125 31.140625q0 13.671875 5.46875 25.296875q5.46875 11.625 15.234375 20.015625q9.765625 8.40625 23.328125 13.09375q13.578125 4.6875 29.796875 4.6875q9.953125 0 18.546875 -1.859375q8.59375 -1.84375 15.828125 -5.171875q7.03125 -3.125 12.890625 -7.421875q5.859375 -4.296875 10.34375 -9.1875q0.984375 5.671875 2.34375 10.75q1.375 5.078125 3.328125 8.984375zm-51.765625 -38.09375q-7.609375 0 -13.375 -1.84375q-5.765625 -1.859375 -9.671875 -4.984375q-3.90625 -3.328125 -5.953125 -8.109375q-2.046875 -4.78125 -2.046875 -10.453125q0 -7.21875 2.734375 -13.375q2.734375 -6.15625 8.390625 -10.640625q5.671875 -4.296875 14.65625 -6.734375q8.984375 -2.453125 21.671875 -2.453125l27.734375 0l0 36.328125q-2.34375 4.109375 -6.453125 8.109375q-4.09375 4.0 -9.75 7.125q-5.671875 3.125 -12.703125 5.078125q-7.03125 1.953125 -15.234375 1.953125zm154.10156 -69.140625l0 4.109375q0 23.046875 5.65625 42.671875q5.671875 19.625 16.421875 33.890625q10.546875 14.25 25.875 22.359375q15.328125 8.109375 34.671875 8.109375q17.765625 0 31.234375 -6.828125q13.484375 -6.84375 23.453125 -19.15625l2.734375 22.078125l49.015625 0l0 -300.0l-54.484375 0l0 107.60937q-9.765625 -10.9375 -22.375 -16.890625q-12.59375 -5.953125 -29.1875 -5.953125q-19.734375 0 -35.0625 7.8125q-15.328125 7.8125 -26.078125 22.0625q-10.734375 14.265625 -16.3125 34.1875q-5.5625 19.921875 -5.5625 43.9375zm54.296875 4.109375l0 -4.109375q0 -13.28125 2.34375 -24.890625q2.34375 -11.625 7.421875 -20.421875q5.078125 -8.59375 13.1875 -13.5625q8.109375 -4.984375 19.625 -4.984375q13.875 0 23.046875 5.953125q9.1875 5.953125 14.65625 16.703125l0 85.546875q-5.46875 10.546875 -14.75 16.609375q-9.28125 6.046875 -23.34375 6.046875q-11.515625 0 -19.53125 -4.875q-8.0 -4.890625 -13.078125 -13.484375q-5.078125 -8.40625 -7.328125 -19.828125q-2.25 -11.421875 -2.25 -24.703125z" fill-rule="nonzero"/></g></svg>