<svg version="1.1" viewBox="0.0 0.0 2067.2808398950133 467.34645669291336" fill="none" stroke="none" stroke-linecap="square" stroke-miterlimit="10" xmlns:xlink="http://www.w3.org/1999/xlink" xmlns="http://www.w3.org/2000/svg"><clipPath id="p.0"><path d="m0 0l2067.2808 0l0 467.34647l-2067.2808 0l0 -467.34647z" clip-rule="nonzero"/></clipPath><g clip-path="url(#p.0)"><path fill="#000000" fill-opacity="0.0" d="m0 0l2067.2808 0l0 467.34647l-2067.2808 0z" fill-rule="evenodd"/><path fill="#000000" fill-opacity="0.0" d="m-88.0 -8.811024l512.7874 0l0 511.74805l-512.7874 0z" fill-rule="evenodd"/><path fill="#000000" fill-opacity="0.0" d="m26.212599 214.49962l0 0c0 -25.68103 20.818586 -46.49962 46.49962 -46.49962l185.99289 0l0 0c12.3324585 0 24.15982 4.899048 32.880188 13.619415c8.720367 8.720383 13.619415 20.54773 13.619415 32.880203l0 189.55196c0 25.68103 -20.818573 46.499603 -46.499603 46.499603l-185.99289 0c-25.681034 0 -46.49962 -20.818573 -46.49962 -46.499603z" fill-rule="evenodd"/><path stroke="#8bb3ee" stroke-width="24.0" stroke-linejoin="round" stroke-linecap="butt" d="m26.212599 214.49962l0 0c0 -25.68103 20.818586 -46.49962 46.49962 -46.49962l185.99289 0l0 0c12.3324585 0 24.15982 4.899048 32.880188 13.619415c8.720367 8.720383 13.619415 20.54773 13.619415 32.880203l0 189.55196c0 25.68103 -20.818573 46.499603 -46.499603 46.499603l-185.99289 0c-25.681034 0 -46.49962 -20.818573 -46.49962 -46.499603z" fill-rule="evenodd"/><path fill="#000000" fill-opacity="0.0" d="m63.070866 310.25986l0 0c0 -56.15042 45.695156 -101.66931 102.063 -101.66931l0 0c27.068787 0 53.0289 10.711563 72.16943 29.778244c19.140518 19.066696 29.89354 44.92668 29.89354 71.89107l0 0c0 56.15039 -45.695145 101.66928 -102.06297 101.66928l0 0c-56.367844 0 -102.063 -45.51889 -102.063 -101.66928z" fill-rule="evenodd"/><path stroke="#8bb3ee" stroke-width="24.0" stroke-linejoin="round" stroke-linecap="butt" d="m63.070866 310.25986l0 0c0 -56.15042 45.695156 -101.66931 102.063 -101.66931l0 0c27.068787 0 53.0289 10.711563 72.16943 29.778244c19.140518 19.066696 29.89354 44.92668 29.89354 71.89107l0 0c0 56.15039 -45.695145 101.66928 -102.06297 101.66928l0 0c-56.367844 0 -102.063 -45.51889 -102.063 -101.66928z" fill-rule="evenodd"/><path fill="#000000" fill-opacity="0.0" d="m63.070866 168.7336l0 0c0 -54.04924 19.495945 -103.98328 51.12965 -130.95592c31.633698 -26.972641 70.58809 -26.8766 102.16095 0.25187302c31.57286 27.128471 50.956375 77.15837 50.834824 131.2073l-102.06242 -0.5032501z" fill-rule="evenodd"/><path fill="#000000" fill-opacity="0.0" d="m63.070866 168.7336l0 0c0 -54.04924 19.495945 -103.98328 51.12965 -130.95592c31.633698 -26.972641 70.58809 -26.8766 102.16095 0.25187302c31.57286 27.128471 50.956375 77.15837 50.834824 131.2073" fill-rule="evenodd"/><path stroke="#8bb3ee" stroke-width="24.0" stroke-linejoin="round" stroke-linecap="butt" d="m63.070866 168.7336l0 0c0 -54.04924 19.495945 -103.98328 51.12965 -130.95592c31.633698 -26.972641 70.58809 -26.8766 102.16095 0.25187302c31.57286 27.128471 50.956375 77.15837 50.834824 131.2073" fill-rule="evenodd"/><path fill="#000000" fill-opacity="0.0" d="m371.46194 4.5800524l1707.7166 0l0 460.53543l-1707.7166 0z" fill-rule="evenodd"/><path fill="#8bb3ee" d="m553.7119 304.62903q0 7.609375 -3.125 13.96875q-3.125 6.34375 -8.984375 10.828125q-5.859375 4.5 -14.359375 7.046875q-8.5 2.53125 -19.43747 2.53125q-12.296875 0 -22.5625 -2.734375q-10.25 -2.734375 -17.46875 -8.59375q-7.421875 -5.859375 -11.53125 -15.03125q-4.09375 -9.1875 -4.484375 -22.078125l-53.90625 0q0 22.0625 8.484375 38.46875q8.5 16.40625 23.15625 28.515625q15.421875 12.3125 36.21875 18.671875q20.8125 6.34375 42.09375 6.34375q21.68747 0 40.046844 -5.171875q18.359375 -5.1875 31.640625 -15.34375q13.28125 -9.96875 20.796875 -24.515625q7.515625 -14.546875 7.515625 -33.296875q0 -21.6875 -9.96875 -38.28125q-9.953125 -16.609375 -26.75 -29.109375q-11.125 -7.609375 -24.40625 -13.46875q-13.28125 -5.859375 -27.9375 -9.96875q-13.6718445 -3.703125 -24.515594 -8.0q-10.828125 -4.296875 -18.453125 -9.578125q-7.609375 -5.078125 -11.625 -11.515625q-4.0 -6.453125 -4.0 -14.453125q0 -7.625 3.03125 -14.15625q3.03125 -6.546875 8.890625 -11.4375q5.859375 -4.6875 14.34375 -7.3125q8.5 -2.640625 19.4375 -2.640625q11.9218445 0 20.796844 3.21875q8.890625 3.21875 14.953125 8.890625q5.859375 5.859375 8.875 13.875q3.03125 8.0 3.421875 17.5625l53.515625 0q0 -19.140625 -7.421875 -35.15625q-7.421875 -16.015617 -20.703125 -27.734367q-13.28125 -11.515625 -31.734375 -17.953125q-18.453125 -6.453125 -40.71872 -6.453125q-21.484375 0 -39.84375 5.5625q-18.359375 5.5625 -31.84375 15.921875q-13.46875 10.34375 -21.09375 24.999992q-7.609375 14.640625 -7.609375 32.609375q0 15.625 5.75 28.90625q5.765625 13.28125 17.09375 24.21875q11.328125 10.9375 29.203125 20.125q17.875 9.171875 41.5 15.625q15.2343445 4.09375 25.484344 8.890625q10.265625 4.78125 16.703125 10.4375q6.25 5.859375 8.890625 12.5q2.640625 6.640625 2.640625 14.265625zm196.86719 78.125q30.671875 0 53.125 -11.90625q22.46875 -11.921875 32.8125 -26.578125l-27.140625 -29.296875q-9.375 12.109375 -24.421875 18.171875q-15.03125 6.046875 -31.046875 6.046875q-11.328125 0 -20.90625 -3.515625q-9.5625 -3.515625 -16.984375 -9.953125q-7.234375 -6.25 -11.53125 -13.96875q-4.296875 -7.71875 -7.03125 -20.40625l0 -0.59375l143.35938 0l0 -23.046875q0 -23.234375 -6.453125 -42.46875q-6.4375 -19.25 -18.734375 -32.921875q-12.5 -13.671875 -30.375 -21.1875q-17.875 -7.515625 -40.71875 -7.515625q-22.078125 0 -40.828125 8.015625q-18.75 8.0 -32.421875 22.453125q-13.671875 14.453125 -21.296875 34.46875q-7.609375 20.015625 -7.609375 44.234375l0 7.8125q0 21.296875 7.71875 39.953125q7.71875 18.640625 21.96875 32.3125q14.265625 13.875 34.1875 21.890625q19.921875 8.0 44.328125 8.0zm-6.4375 -175.20312q10.34375 0 18.25 3.234375q7.921875 3.21875 13.390625 8.6875q5.46875 5.65625 8.59375 13.28125q3.125 7.609375 3.125 16.203125l0 4.296875l-89.0625 0q1.953125 -10.34375 5.859375 -18.734375q3.90625 -8.40625 9.765625 -14.46875q5.65625 -6.046875 13.265625 -9.265625q7.625 -3.234375 16.8125 -3.234375zm237.49219 131.84375q-13.078125 0 -21.578125 -5.265625q-8.5 -5.28125 -13.375 -14.078125q-5.078125 -8.59375 -7.03125 -20.015625q-1.953125 -11.421875 -1.953125 -23.734375l0 -5.859375q0 -12.109375 2.046875 -23.4375q2.046875 -11.328125 7.125 -20.109375q4.890625 -8.796875 13.28125 -14.0625q8.40625 -5.28125 21.296875 -5.28125q8.78125 0 16.203125 3.03125q7.421875 3.03125 12.703125 8.109375q5.265625 5.078125 8.0 12.109375q2.734375 7.03125 2.34375 14.84375l51.171875 0q0.390625 -18.75 -6.25 -33.890625q-6.640625 -15.140625 -18.546875 -25.875q-12.109375 -10.546875 -28.71875 -16.40625q-16.59375 -5.859375 -36.125 -5.859375q-24.421875 0 -42.875 8.40625q-18.453125 8.390625 -30.953125 22.84375q-12.5 14.453125 -18.75 33.890625q-6.25 19.421875 -6.25 41.6875l0 5.859375q0 22.265625 6.34375 41.703125q6.34375 19.4375 18.84375 33.890625q12.3125 14.453125 30.859375 22.765625q18.5625 8.296875 43.171875 8.296875q18.15625 0 34.46875 -5.765625q16.3125 -5.765625 28.609375 -15.921875q12.3125 -10.15625 19.4375 -24.21875q7.125 -14.0625 6.734375 -30.46875l-51.171875 0q0.390625 7.421875 -2.640625 13.484375q-3.015625 6.046875 -8.484375 10.34375q-5.46875 4.296875 -12.703125 6.640625q-7.21875 2.34375 -15.234375 2.34375zm157.82031 -260.54688l0 44.328125l63.28125 0l0 211.53125l-63.28125 0l0 44.140625l178.70312 0l0 -44.140625l-60.546875 0l0 -255.85938l-118.15625 0zm366.60156 300.0l49.21875 0l0 -211.32812l-54.5 0l0 148.23438q-2.53125 5.078125 -6.046875 9.1875q-3.515625 4.09375 -8.015625 7.03125q-5.265625 3.3125 -12.203125 5.078125q-6.9375 1.75 -15.53125 1.75q-9.5625 0 -16.203125 -2.34375q-6.640625 -2.34375 -10.75 -7.8125q-4.09375 -5.265625 -5.953125 -14.046875q-1.859375 -8.796875 -1.859375 -21.6875l0 -125.390625l-54.296875 0l0 125.0q0 24.015625 5.375 41.109375q5.375 17.09375 15.140625 28.03125q9.765625 11.125 23.4375 16.21875q13.671875 5.078125 30.078125 5.078125q17.96875 0 33.09375 -8.984375q15.140625 -9.0 25.890625 -24.8125l3.125 29.6875zm238.47656 -58.015625q0 4.890625 -2.453125 9.0q-2.4375 4.09375 -7.3125 7.21875q-5.078125 3.125 -13.0 4.984375q-7.90625 1.84375 -18.453125 1.84375q-8.78125 0 -17.09375 -1.75q-8.296875 -1.765625 -14.734375 -5.671875q-6.453125 -3.703125 -10.5625 -9.859375q-4.09375 -6.15625 -4.671875 -14.75l-51.765625 0q0 12.890625 6.34375 25.6875q6.359375 12.796875 18.65625 22.75q12.3125 10.15625 30.5625 16.421875q18.265625 6.25 42.09375 6.25q21.6875 0 39.265625 -4.78125q17.578125 -4.796875 30.078125 -13.390625q12.296875 -8.59375 19.03125 -20.40625q6.75 -11.828125 6.75 -25.890625q0 -15.234375 -6.75 -26.265625q-6.734375 -11.03125 -18.640625 -18.84375q-11.921875 -7.625 -28.328125 -12.5q-16.40625 -4.890625 -35.546875 -8.015625q-13.28125 -1.953125 -21.875 -4.578125q-8.59375 -2.640625 -13.46875 -5.96875q-5.078125 -3.125 -7.03125 -7.125q-1.953125 -4.0 -1.953125 -8.6875q0 -4.6875 2.234375 -8.890625q2.25 -4.203125 6.546875 -7.328125q4.6875 -3.515625 12.109375 -5.46875q7.421875 -1.953125 17.390625 -1.953125q11.71875 0 20.015625 2.9375q8.296875 2.921875 13.1875 7.8125q3.515625 3.703125 5.265625 8.296875q1.765625 4.59375 1.765625 9.859375l54.296875 0q0 -14.640625 -6.453125 -27.140625q-6.4375 -12.5 -18.546875 -21.6875q-12.3125 -8.984375 -29.890625 -14.15625q-17.578125 -5.171875 -39.640625 -5.171875q-21.09375 0 -37.890625 5.28125q-16.796875 5.265625 -28.515625 14.25q-11.71875 8.984375 -17.96875 20.90625q-6.25 11.90625 -6.25 24.984375q0 13.484375 6.140625 23.84375q6.15625 10.34375 17.09375 18.15625q10.9375 8.0 26.265625 13.578125q15.34375 5.5625 33.890625 9.265625q14.65625 2.734375 24.21875 5.46875q9.578125 2.734375 15.4375 5.859375q5.65625 3.328125 7.90625 7.046875q2.25 3.703125 2.25 8.578125zm96.28906 -49.609375l0 4.109375q0 23.234375 6.640625 42.875q6.640625 19.625 19.53125 34.078125q12.6875 14.453125 31.34375 22.5625q18.65625 8.109375 42.484375 8.109375q23.625 0 42.171875 -8.109375q18.5625 -8.109375 31.265625 -22.5625q12.6875 -14.453125 19.328125 -34.078125q6.640625 -19.640625 6.640625 -42.875l0 -4.109375q0 -23.046875 -6.640625 -42.671875q-6.640625 -19.625 -19.328125 -34.078125q-12.890625 -14.453125 -31.453125 -22.65625q-18.546875 -8.203125 -42.375 -8.203125q-23.828125 0 -42.296875 8.203125q-18.453125 8.203125 -31.140625 22.65625q-12.890625 14.453125 -19.53125 34.078125q-6.640625 19.625 -6.640625 42.671875zm54.296875 4.109375l0 -4.109375q0 -12.890625 2.53125 -24.40625q2.546875 -11.53125 8.015625 -20.3125q5.46875 -8.796875 14.0625 -13.875q8.59375 -5.078125 20.703125 -5.078125q12.296875 0 20.890625 5.078125q8.59375 5.078125 14.0625 13.875q5.28125 8.78125 7.8125 20.3125q2.546875 11.515625 2.546875 24.40625l0 4.109375q0 13.28125 -2.546875 24.90625q-2.53125 11.609375 -7.8125 20.203125q-5.46875 8.796875 -14.0625 13.875q-8.59375 5.078125 -20.5 5.078125q-12.3125 0 -21.0 -5.078125q-8.6875 -5.078125 -14.15625 -13.875q-5.46875 -8.59375 -8.015625 -20.203125q-2.53125 -11.625 -2.53125 -24.90625z" fill-rule="nonzero"/></g></svg>